<svg xmlns="http://www.w3.org/2000/svg" viewBox="0 0 180 180" role="img" aria-label="Logo de Sapori">
  <defs>
    <linearGradient id="bg" x1="0" x2="1" y1="0" y2="1">
      <stop offset="0%" stop-color="#F2B56B"/>
      <stop offset="100%" stop-color="#BF6734"/>
    </linearGradient>
  </defs>
  <rect width="180" height="180" rx="42" fill="url(#bg)"/>
  <circle cx="90" cy="90" r="62" fill="#fffaf5" opacity="0.9"/>
  <path d="M52 98c0-21 15-38 38-38 17 0 28 11 31 25 4 18-9 35-30 35-14 0-26-8-39-22zm16 4c10 13 21 18 35 18 13 0 23-7 28-18-8 5-17 8-28 8-9 0-18-3-35-8z" fill="#8C4830"/>
  <path d="M69 74c8-12 19-18 31-18 15 0 26 8 34 21-9-3-19-5-31-5-12 0-22 1-34 2z" fill="#D99559"/>
  <text x="90" y="132" text-anchor="middle" font-size="24" font-family="Arial, Helvetica, sans-serif" font-weight="700" fill="#8C4830">S</text>
</svg>
